<mxfile host="app.diagrams.net" agent="Mozilla/5.0 (Windows NT 10.0; Win64; x64; rv:130.0) Gecko/20100101 Firefox/130.0" version="24.7.12">
  <diagram name="Page-1" id="ksrTAwitEhWfJyu50R_l">
    <mxGraphModel dx="1434" dy="734" grid="1" gridSize="10" guides="1" tooltips="1" connect="1" arrows="1" fold="1" page="1" pageScale="1" pageWidth="850" pageHeight="1100" math="0" shadow="0">
      <root>
        <mxCell id="0" />
        <mxCell id="1" parent="0" />
        <mxCell id="7bOhwb5kKMFxKV_Ecydf-2" value="&lt;div&gt;&lt;font face=&quot;Verdana&quot;&gt;User&lt;/font&gt;&lt;/div&gt;" style="rounded=0;whiteSpace=wrap;html=1;fillColor=#dae8fc;strokeColor=#6c8ebf;" vertex="1" parent="1">
          <mxGeometry x="140" y="290" width="120" height="40" as="geometry" />
        </mxCell>
        <mxCell id="7bOhwb5kKMFxKV_Ecydf-3" value="&lt;div&gt;Word&lt;/div&gt;" style="rounded=0;whiteSpace=wrap;html=1;fillColor=#dae8fc;strokeColor=#6c8ebf;" vertex="1" parent="1">
          <mxGeometry x="550" y="290" width="120" height="40" as="geometry" />
        </mxCell>
        <mxCell id="7bOhwb5kKMFxKV_Ecydf-4" value="Deck" style="rounded=0;whiteSpace=wrap;html=1;fillColor=#dae8fc;strokeColor=#6c8ebf;strokeWidth=3;" vertex="1" parent="1">
          <mxGeometry x="330" y="120" width="120" height="40" as="geometry" />
        </mxCell>
        <mxCell id="7bOhwb5kKMFxKV_Ecydf-6" value="&lt;div&gt;Owns Deck&lt;/div&gt;" style="rhombus;whiteSpace=wrap;html=1;fillColor=#f8cecc;strokeColor=#b85450;strokeWidth=4;" vertex="1" parent="1">
          <mxGeometry x="190" y="160" width="80" height="80" as="geometry" />
        </mxCell>
        <mxCell id="7bOhwb5kKMFxKV_Ecydf-7" value="Has Word" style="rhombus;whiteSpace=wrap;html=1;fillColor=#f8cecc;strokeColor=#b85450;" vertex="1" parent="1">
          <mxGeometry x="500" y="155" width="80" height="80" as="geometry" />
        </mxCell>
        <mxCell id="7bOhwb5kKMFxKV_Ecydf-8" value="" style="endArrow=none;html=1;rounded=0;exitX=1;exitY=0.5;exitDx=0;exitDy=0;" edge="1" parent="1" source="7bOhwb5kKMFxKV_Ecydf-4" target="7bOhwb5kKMFxKV_Ecydf-7">
          <mxGeometry width="50" height="50" relative="1" as="geometry">
            <mxPoint x="560" y="150" as="sourcePoint" />
            <mxPoint x="610" y="100" as="targetPoint" />
          </mxGeometry>
        </mxCell>
        <mxCell id="7bOhwb5kKMFxKV_Ecydf-9" value="" style="endArrow=none;html=1;rounded=0;exitX=1;exitY=1;exitDx=0;exitDy=0;entryX=0.462;entryY=0.022;entryDx=0;entryDy=0;entryPerimeter=0;" edge="1" parent="1" source="7bOhwb5kKMFxKV_Ecydf-7" target="7bOhwb5kKMFxKV_Ecydf-3">
          <mxGeometry width="50" height="50" relative="1" as="geometry">
            <mxPoint x="690" y="210" as="sourcePoint" />
            <mxPoint x="740" y="160" as="targetPoint" />
          </mxGeometry>
        </mxCell>
        <mxCell id="7bOhwb5kKMFxKV_Ecydf-12" value="" style="endArrow=none;html=1;rounded=0;entryX=0;entryY=1;entryDx=0;entryDy=0;exitX=0.5;exitY=0;exitDx=0;exitDy=0;" edge="1" parent="1" source="7bOhwb5kKMFxKV_Ecydf-2" target="7bOhwb5kKMFxKV_Ecydf-6">
          <mxGeometry width="50" height="50" relative="1" as="geometry">
            <mxPoint x="540" y="240" as="sourcePoint" />
            <mxPoint x="590" y="190" as="targetPoint" />
          </mxGeometry>
        </mxCell>
        <mxCell id="7bOhwb5kKMFxKV_Ecydf-14" value="&lt;div&gt;&lt;u&gt;Username&lt;/u&gt;&lt;/div&gt;" style="ellipse;whiteSpace=wrap;html=1;fillColor=#d5e8d4;strokeColor=#82b366;" vertex="1" parent="1">
          <mxGeometry y="330" width="120" height="50" as="geometry" />
        </mxCell>
        <mxCell id="7bOhwb5kKMFxKV_Ecydf-15" value="" style="endArrow=none;html=1;rounded=0;exitX=0.5;exitY=0;exitDx=0;exitDy=0;entryX=0;entryY=0.5;entryDx=0;entryDy=0;" edge="1" parent="1" source="7bOhwb5kKMFxKV_Ecydf-14" target="7bOhwb5kKMFxKV_Ecydf-2">
          <mxGeometry width="50" height="50" relative="1" as="geometry">
            <mxPoint x="460" y="280" as="sourcePoint" />
            <mxPoint x="510" y="230" as="targetPoint" />
          </mxGeometry>
        </mxCell>
        <mxCell id="7bOhwb5kKMFxKV_Ecydf-18" value="" style="triangle;whiteSpace=wrap;html=1;direction=north;fillColor=#ffe6cc;strokeColor=#d79b00;" vertex="1" parent="1">
          <mxGeometry x="550" y="365" width="80" height="60" as="geometry" />
        </mxCell>
        <mxCell id="7bOhwb5kKMFxKV_Ecydf-20" value="" style="endArrow=none;html=1;rounded=0;entryX=0.5;entryY=1;entryDx=0;entryDy=0;exitX=1;exitY=0.5;exitDx=0;exitDy=0;strokeColor=#000000;strokeWidth=4;" edge="1" parent="1" source="7bOhwb5kKMFxKV_Ecydf-18" target="7bOhwb5kKMFxKV_Ecydf-3">
          <mxGeometry width="50" height="50" relative="1" as="geometry">
            <mxPoint x="460" y="300" as="sourcePoint" />
            <mxPoint x="510" y="250" as="targetPoint" />
          </mxGeometry>
        </mxCell>
        <mxCell id="7bOhwb5kKMFxKV_Ecydf-22" value="Japanese" style="rounded=0;whiteSpace=wrap;html=1;fillColor=#dae8fc;strokeColor=#6c8ebf;" vertex="1" parent="1">
          <mxGeometry x="425" y="460" width="120" height="40" as="geometry" />
        </mxCell>
        <mxCell id="7bOhwb5kKMFxKV_Ecydf-23" value="" style="endArrow=none;html=1;rounded=0;exitX=0.5;exitY=0;exitDx=0;exitDy=0;entryX=0.02;entryY=-0.022;entryDx=0;entryDy=0;entryPerimeter=0;" edge="1" parent="1" source="7bOhwb5kKMFxKV_Ecydf-22" target="7bOhwb5kKMFxKV_Ecydf-18">
          <mxGeometry width="50" height="50" relative="1" as="geometry">
            <mxPoint x="550" y="240" as="sourcePoint" />
            <mxPoint x="625" y="301" as="targetPoint" />
          </mxGeometry>
        </mxCell>
        <mxCell id="7bOhwb5kKMFxKV_Ecydf-24" value="Has seen word" style="rhombus;whiteSpace=wrap;html=1;fillColor=#f8cecc;strokeColor=#b85450;" vertex="1" parent="1">
          <mxGeometry x="350" y="270" width="80" height="80" as="geometry" />
        </mxCell>
        <mxCell id="7bOhwb5kKMFxKV_Ecydf-26" value="" style="endArrow=none;html=1;rounded=0;exitX=1;exitY=0.5;exitDx=0;exitDy=0;entryX=0;entryY=0.5;entryDx=0;entryDy=0;" edge="1" parent="1" source="7bOhwb5kKMFxKV_Ecydf-2" target="7bOhwb5kKMFxKV_Ecydf-24">
          <mxGeometry width="50" height="50" relative="1" as="geometry">
            <mxPoint x="460" y="360" as="sourcePoint" />
            <mxPoint x="510" y="310" as="targetPoint" />
          </mxGeometry>
        </mxCell>
        <mxCell id="7bOhwb5kKMFxKV_Ecydf-27" value="" style="endArrow=none;html=1;rounded=0;exitX=1;exitY=0.5;exitDx=0;exitDy=0;entryX=0;entryY=0.5;entryDx=0;entryDy=0;" edge="1" parent="1" source="7bOhwb5kKMFxKV_Ecydf-24" target="7bOhwb5kKMFxKV_Ecydf-3">
          <mxGeometry width="50" height="50" relative="1" as="geometry">
            <mxPoint x="460" y="360" as="sourcePoint" />
            <mxPoint x="510" y="310" as="targetPoint" />
          </mxGeometry>
        </mxCell>
        <mxCell id="7bOhwb5kKMFxKV_Ecydf-28" value="&lt;u&gt;Name&lt;/u&gt;" style="ellipse;whiteSpace=wrap;html=1;fillColor=#d5e8d4;strokeColor=#82b366;" vertex="1" parent="1">
          <mxGeometry x="130" width="120" height="50" as="geometry" />
        </mxCell>
        <mxCell id="7bOhwb5kKMFxKV_Ecydf-30" value="" style="endArrow=none;html=1;rounded=0;exitX=0;exitY=0;exitDx=0;exitDy=0;entryX=0.5;entryY=1;entryDx=0;entryDy=0;" edge="1" parent="1" source="7bOhwb5kKMFxKV_Ecydf-4" target="7bOhwb5kKMFxKV_Ecydf-28">
          <mxGeometry width="50" height="50" relative="1" as="geometry">
            <mxPoint x="273" y="115" as="sourcePoint" />
            <mxPoint x="330" y="70" as="targetPoint" />
          </mxGeometry>
        </mxCell>
        <mxCell id="7bOhwb5kKMFxKV_Ecydf-31" value="&lt;div&gt;Date Created&lt;br&gt;&lt;/div&gt;" style="ellipse;whiteSpace=wrap;html=1;fillColor=#d5e8d4;strokeColor=#82b366;" vertex="1" parent="1">
          <mxGeometry x="290" y="10" width="120" height="50" as="geometry" />
        </mxCell>
        <mxCell id="7bOhwb5kKMFxKV_Ecydf-32" value="" style="endArrow=none;html=1;rounded=0;exitX=0.164;exitY=-0.047;exitDx=0;exitDy=0;entryX=0.5;entryY=1;entryDx=0;entryDy=0;exitPerimeter=0;" edge="1" parent="1" target="7bOhwb5kKMFxKV_Ecydf-31" source="7bOhwb5kKMFxKV_Ecydf-4">
          <mxGeometry width="50" height="50" relative="1" as="geometry">
            <mxPoint x="340" y="130" as="sourcePoint" />
            <mxPoint x="340" y="80" as="targetPoint" />
          </mxGeometry>
        </mxCell>
        <mxCell id="7bOhwb5kKMFxKV_Ecydf-33" value="Confidence" style="ellipse;whiteSpace=wrap;html=1;fillColor=#d5e8d4;strokeColor=#82b366;" vertex="1" parent="1">
          <mxGeometry x="270" y="365" width="120" height="50" as="geometry" />
        </mxCell>
        <mxCell id="7bOhwb5kKMFxKV_Ecydf-34" value="" style="endArrow=none;html=1;rounded=0;entryX=0.5;entryY=0;entryDx=0;entryDy=0;exitX=0;exitY=1;exitDx=0;exitDy=0;" edge="1" parent="1" target="7bOhwb5kKMFxKV_Ecydf-33" source="7bOhwb5kKMFxKV_Ecydf-24">
          <mxGeometry width="50" height="50" relative="1" as="geometry">
            <mxPoint x="356.60818713450294" y="389.9981871345029" as="sourcePoint" />
            <mxPoint x="290" y="464.39" as="targetPoint" />
          </mxGeometry>
        </mxCell>
        <mxCell id="7bOhwb5kKMFxKV_Ecydf-35" value="&lt;u&gt;Word&lt;/u&gt;" style="ellipse;whiteSpace=wrap;html=1;fillColor=#d5e8d4;strokeColor=#82b366;" vertex="1" parent="1">
          <mxGeometry x="650" y="370" width="120" height="50" as="geometry" />
        </mxCell>
        <mxCell id="7bOhwb5kKMFxKV_Ecydf-36" value="" style="endArrow=none;html=1;rounded=0;exitX=0.664;exitY=1.083;exitDx=0;exitDy=0;entryX=0.459;entryY=0.046;entryDx=0;entryDy=0;exitPerimeter=0;entryPerimeter=0;" edge="1" parent="1" target="7bOhwb5kKMFxKV_Ecydf-35" source="7bOhwb5kKMFxKV_Ecydf-3">
          <mxGeometry width="50" height="50" relative="1" as="geometry">
            <mxPoint x="800" y="270" as="sourcePoint" />
            <mxPoint x="800" y="220" as="targetPoint" />
          </mxGeometry>
        </mxCell>
        <mxCell id="7bOhwb5kKMFxKV_Ecydf-37" value="&lt;div&gt;&lt;u&gt;Definition&lt;/u&gt;&lt;/div&gt;" style="ellipse;whiteSpace=wrap;html=1;fillColor=#d5e8d4;strokeColor=#82b366;" vertex="1" parent="1">
          <mxGeometry x="700" y="15" width="120" height="50" as="geometry" />
        </mxCell>
        <mxCell id="7bOhwb5kKMFxKV_Ecydf-38" value="" style="endArrow=none;html=1;rounded=0;exitX=1;exitY=0.5;exitDx=0;exitDy=0;entryX=0;entryY=0.5;entryDx=0;entryDy=0;" edge="1" parent="1" target="7bOhwb5kKMFxKV_Ecydf-37" source="7bOhwb5kKMFxKV_Ecydf-51">
          <mxGeometry width="50" height="50" relative="1" as="geometry">
            <mxPoint x="670" y="310" as="sourcePoint" />
            <mxPoint x="720" y="40" as="targetPoint" />
          </mxGeometry>
        </mxCell>
        <mxCell id="7bOhwb5kKMFxKV_Ecydf-39" value="&lt;div&gt;Date Created&lt;br&gt;&lt;/div&gt;" style="ellipse;whiteSpace=wrap;html=1;fillColor=#d5e8d4;strokeColor=#82b366;" vertex="1" parent="1">
          <mxGeometry x="10" y="230" width="120" height="50" as="geometry" />
        </mxCell>
        <mxCell id="7bOhwb5kKMFxKV_Ecydf-40" value="" style="endArrow=none;html=1;rounded=0;exitX=0;exitY=0;exitDx=0;exitDy=0;entryX=0.5;entryY=1;entryDx=0;entryDy=0;" edge="1" parent="1" target="7bOhwb5kKMFxKV_Ecydf-39" source="7bOhwb5kKMFxKV_Ecydf-2">
          <mxGeometry width="50" height="50" relative="1" as="geometry">
            <mxPoint x="90" y="278" as="sourcePoint" />
            <mxPoint x="80" y="240" as="targetPoint" />
          </mxGeometry>
        </mxCell>
        <mxCell id="7bOhwb5kKMFxKV_Ecydf-42" value="Date Last Reviewed" style="ellipse;whiteSpace=wrap;html=1;fillColor=#d5e8d4;strokeColor=#82b366;" vertex="1" parent="1">
          <mxGeometry x="390" y="365" width="120" height="50" as="geometry" />
        </mxCell>
        <mxCell id="7bOhwb5kKMFxKV_Ecydf-43" value="" style="endArrow=none;html=1;rounded=0;entryX=0.5;entryY=0;entryDx=0;entryDy=0;exitX=1;exitY=1;exitDx=0;exitDy=0;" edge="1" parent="1" target="7bOhwb5kKMFxKV_Ecydf-42" source="7bOhwb5kKMFxKV_Ecydf-24">
          <mxGeometry width="50" height="50" relative="1" as="geometry">
            <mxPoint x="480" y="335" as="sourcePoint" />
            <mxPoint x="400" y="469.39" as="targetPoint" />
          </mxGeometry>
        </mxCell>
        <mxCell id="7bOhwb5kKMFxKV_Ecydf-45" value="Kanji Reading" style="ellipse;whiteSpace=wrap;html=1;fillColor=#d5e8d4;strokeColor=#82b366;" vertex="1" parent="1">
          <mxGeometry x="330" y="560" width="120" height="50" as="geometry" />
        </mxCell>
        <mxCell id="7bOhwb5kKMFxKV_Ecydf-46" value="" style="endArrow=none;html=1;rounded=0;exitX=0.25;exitY=1;exitDx=0;exitDy=0;entryX=0.5;entryY=0;entryDx=0;entryDy=0;" edge="1" parent="1" target="7bOhwb5kKMFxKV_Ecydf-45" source="7bOhwb5kKMFxKV_Ecydf-22">
          <mxGeometry width="50" height="50" relative="1" as="geometry">
            <mxPoint x="250" y="580" as="sourcePoint" />
            <mxPoint x="470" y="540" as="targetPoint" />
          </mxGeometry>
        </mxCell>
        <mxCell id="7bOhwb5kKMFxKV_Ecydf-48" value="" style="endArrow=none;html=1;rounded=0;exitX=0.75;exitY=1;exitDx=0;exitDy=0;entryX=0.434;entryY=0.052;entryDx=0;entryDy=0;entryPerimeter=0;" edge="1" parent="1" source="7bOhwb5kKMFxKV_Ecydf-22" target="7bOhwb5kKMFxKV_Ecydf-49">
          <mxGeometry width="50" height="50" relative="1" as="geometry">
            <mxPoint x="500" y="500" as="sourcePoint" />
            <mxPoint x="485" y="560" as="targetPoint" />
          </mxGeometry>
        </mxCell>
        <mxCell id="7bOhwb5kKMFxKV_Ecydf-49" value="JLPT Level" style="ellipse;whiteSpace=wrap;html=1;fillColor=#d5e8d4;strokeColor=#82b366;" vertex="1" parent="1">
          <mxGeometry x="510" y="560" width="120" height="50" as="geometry" />
        </mxCell>
        <mxCell id="7bOhwb5kKMFxKV_Ecydf-50" value="&lt;div&gt;Has Definition&lt;/div&gt;" style="rhombus;whiteSpace=wrap;html=1;fillColor=#f8cecc;strokeColor=#b85450;" vertex="1" parent="1">
          <mxGeometry x="640" y="110" width="80" height="80" as="geometry" />
        </mxCell>
        <mxCell id="7bOhwb5kKMFxKV_Ecydf-51" value="&lt;div&gt;Definition&lt;/div&gt;" style="rounded=0;whiteSpace=wrap;html=1;fillColor=#dae8fc;strokeColor=#6c8ebf;" vertex="1" parent="1">
          <mxGeometry x="550" y="20" width="120" height="40" as="geometry" />
        </mxCell>
        <mxCell id="7bOhwb5kKMFxKV_Ecydf-52" value="" style="endArrow=none;html=1;rounded=0;entryX=0.5;entryY=1;entryDx=0;entryDy=0;exitX=0.5;exitY=0;exitDx=0;exitDy=0;strokeColor=#000000;strokeWidth=4;" edge="1" parent="1" source="7bOhwb5kKMFxKV_Ecydf-3" target="7bOhwb5kKMFxKV_Ecydf-50">
          <mxGeometry width="50" height="50" relative="1" as="geometry">
            <mxPoint x="620" y="290" as="sourcePoint" />
            <mxPoint x="640" y="255" as="targetPoint" />
          </mxGeometry>
        </mxCell>
        <mxCell id="7bOhwb5kKMFxKV_Ecydf-54" value="" style="endArrow=classic;html=1;rounded=0;exitX=0.442;exitY=1.057;exitDx=0;exitDy=0;exitPerimeter=0;entryX=0.5;entryY=0;entryDx=0;entryDy=0;strokeWidth=3;" edge="1" parent="1" source="7bOhwb5kKMFxKV_Ecydf-51" target="7bOhwb5kKMFxKV_Ecydf-50">
          <mxGeometry width="50" height="50" relative="1" as="geometry">
            <mxPoint x="660" y="240" as="sourcePoint" />
            <mxPoint x="710" y="190" as="targetPoint" />
          </mxGeometry>
        </mxCell>
        <mxCell id="7bOhwb5kKMFxKV_Ecydf-55" value="" style="endArrow=classic;html=1;rounded=0;exitX=0;exitY=0.25;exitDx=0;exitDy=0;entryX=1;entryY=0;entryDx=0;entryDy=0;strokeWidth=3;" edge="1" parent="1" source="7bOhwb5kKMFxKV_Ecydf-4" target="7bOhwb5kKMFxKV_Ecydf-6">
          <mxGeometry width="50" height="50" relative="1" as="geometry">
            <mxPoint x="253" y="150" as="sourcePoint" />
            <mxPoint x="330" y="198" as="targetPoint" />
          </mxGeometry>
        </mxCell>
        <mxCell id="7bOhwb5kKMFxKV_Ecydf-56" value="&lt;div&gt;Is Public&lt;/div&gt;" style="ellipse;whiteSpace=wrap;html=1;fillColor=#d5e8d4;strokeColor=#82b366;" vertex="1" parent="1">
          <mxGeometry x="420" y="10" width="120" height="50" as="geometry" />
        </mxCell>
        <mxCell id="7bOhwb5kKMFxKV_Ecydf-57" value="" style="endArrow=none;html=1;rounded=0;exitX=1;exitY=0;exitDx=0;exitDy=0;entryX=0.5;entryY=1;entryDx=0;entryDy=0;" edge="1" parent="1" target="7bOhwb5kKMFxKV_Ecydf-56" source="7bOhwb5kKMFxKV_Ecydf-4">
          <mxGeometry width="50" height="50" relative="1" as="geometry">
            <mxPoint x="480" y="118" as="sourcePoint" />
            <mxPoint x="470" y="80" as="targetPoint" />
          </mxGeometry>
        </mxCell>
      </root>
    </mxGraphModel>
  </diagram>
</mxfile>
